<svg xmlns="http://www.w3.org/2000/svg" width="100" height="100" viewBox="0 0 100 100">
  <rect width="100" height="100" rx="22" fill="#08070F"/>
  <g stroke="#1FE0FF" stroke-width="4" fill="none" stroke-linecap="round">
    <line x1="50" y1="50" x2="50" y2="10"/>
    <line x1="50" y1="50" x2="79" y2="21"/>
    <line x1="50" y1="50" x2="90" y2="50"/>
    <line x1="50" y1="50" x2="79" y2="79"/>
    <line x1="50" y1="50" x2="50" y2="90"/>
    <line x1="50" y1="50" x2="21" y2="79"/>
    <line x1="50" y1="50" x2="10" y2="50"/>
    <line x1="50" y1="50" x2="21" y2="21"/>
    <polygon points="66,50 61,61 50,66 39,61 34,50 39,39 50,34 61,39"/>
    <polygon points="82,50 73,73 50,82 27,73 18,50 27,27 50,18 73,27"/>
  </g>
  <circle cx="50" cy="50" r="8" fill="#FF2A6D"/>
</svg>
